<?xml version="1.0" encoding="UTF-8" standalone="no"?>
<!-- Created with Inkscape (http://www.inkscape.org/) -->

<svg
   version="1.1"
   id="svg2"
   width="473"
   height="105"
   viewBox="0 0 473 105"
   sodipodi:docname="RD LGO ADOBE 8.svg"
   inkscape:version="1.2.2 (732a01da63, 2022-12-09)"
   xmlns:inkscape="http://www.inkscape.org/namespaces/inkscape"
   xmlns:sodipodi="http://sodipodi.sourceforge.net/DTD/sodipodi-0.dtd"
   xmlns:xlink="http://www.w3.org/1999/xlink"
   xmlns="http://www.w3.org/2000/svg"
   xmlns:svg="http://www.w3.org/2000/svg">
  <defs
     id="defs6">
    <linearGradient
       inkscape:collect="always"
       id="linearGradient9092">
      <stop
         style="stop-color:#009ad3;stop-opacity:1;"
         offset="0"
         id="stop9088" />
      <stop
         style="stop-color:#062f43;stop-opacity:1;"
         offset="1"
         id="stop9090" />
    </linearGradient>
    <inkscape:path-effect
       effect="bspline"
       id="path-effect15783"
       is_visible="true"
       lpeversion="1"
       weight="33.333333"
       steps="2"
       helper_size="0"
       apply_no_weight="true"
       apply_with_weight="true"
       only_selected="false" />
    <linearGradient
       inkscape:collect="always"
       xlink:href="#linearGradient9092"
       id="linearGradient9094"
       x1="116.56653"
       y1="49.562084"
       x2="117.95949"
       y2="82.490402"
       gradientUnits="userSpaceOnUse" />
    <inkscape:path-effect
       effect="bspline"
       id="path-effect15783-3"
       is_visible="true"
       lpeversion="1"
       weight="33.333333"
       steps="2"
       helper_size="0"
       apply_no_weight="true"
       apply_with_weight="true"
       only_selected="false" />
    <inkscape:path-effect
       effect="bspline"
       id="path-effect15783-3-9"
       is_visible="true"
       lpeversion="1"
       weight="33.333333"
       steps="2"
       helper_size="0"
       apply_no_weight="true"
       apply_with_weight="true"
       only_selected="false" />
    <linearGradient
       inkscape:collect="always"
       id="linearGradient4941">
      <stop
         style="stop-color:#062f43;stop-opacity:1;"
         offset="1"
         id="stop4937" />
      <stop
         style="stop-color:#000000;stop-opacity:0;"
         offset="1"
         id="stop4939" />
    </linearGradient>
    <linearGradient
       inkscape:collect="always"
       xlink:href="#linearGradient5294"
       id="linearGradient5296"
       x1="68.56842"
       y1="162.12308"
       x2="115.35662"
       y2="162.12308"
       gradientUnits="userSpaceOnUse"
       gradientTransform="matrix(1.047897,0,0,0.90239821,-60.709649,6.2007562)" />
    <linearGradient
       inkscape:collect="always"
       id="linearGradient5294">
      <stop
         style="stop-color:#062f43;stop-opacity:1;"
         offset="0.99363059"
         id="stop5290" />
      <stop
         style="stop-color:#000000;stop-opacity:0;"
         offset="1"
         id="stop5292" />
    </linearGradient>
    <linearGradient
       inkscape:collect="always"
       xlink:href="#linearGradient907"
       id="linearGradient909"
       x1="80.646629"
       y1="76.655937"
       x2="152.32854"
       y2="76.655937"
       gradientUnits="userSpaceOnUse"
       gradientTransform="matrix(1.047897,0,0,0.90239821,-60.709649,6.2007562)" />
    <linearGradient
       inkscape:collect="always"
       id="linearGradient907">
      <stop
         style="stop-color:#062f43;stop-opacity:1;"
         offset="0.95859873"
         id="stop903" />
      <stop
         style="stop-color:#000000;stop-opacity:0;"
         offset="1"
         id="stop905" />
    </linearGradient>
    <linearGradient
       inkscape:collect="always"
       xlink:href="#linearGradient1700"
       id="linearGradient1702"
       x1="108.32396"
       y1="70.910072"
       x2="169.46632"
       y2="70.910072"
       gradientUnits="userSpaceOnUse"
       gradientTransform="matrix(1.047897,0,0,0.90239821,-60.709649,6.2007562)" />
    <linearGradient
       inkscape:collect="always"
       id="linearGradient1700">
      <stop
         style="stop-color:#062f43;stop-opacity:1;"
         offset="1"
         id="stop1696" />
      <stop
         style="stop-color:#241f1c;stop-opacity:0;"
         offset="1"
         id="stop1698" />
    </linearGradient>
    <linearGradient
       inkscape:collect="always"
       xlink:href="#linearGradient4941"
       id="linearGradient5373"
       x1="68.795921"
       y1="166.65421"
       x2="156.74081"
       y2="166.65421"
       gradientUnits="userSpaceOnUse"
       gradientTransform="matrix(1.047897,0,0,0.90239821,-60.709649,6.2007562)" />
  </defs>
  <sodipodi:namedview
     id="namedview4"
     pagecolor="#ffffff"
     bordercolor="#000000"
     borderopacity="0.25"
     inkscape:showpageshadow="2"
     inkscape:pageopacity="0.0"
     inkscape:pagecheckerboard="0"
     inkscape:deskcolor="#d1d1d1"
     showgrid="false"
     showguides="false"
     inkscape:zoom="1.850631"
     inkscape:cx="237.21639"
     inkscape:cy="46.740815"
     inkscape:window-width="1920"
     inkscape:window-height="991"
     inkscape:window-x="-9"
     inkscape:window-y="-9"
     inkscape:window-maximized="1"
     inkscape:current-layer="g8" />
  <g
     inkscape:groupmode="layer"
     inkscape:label="Image"
     id="g8">
    <g
       id="g20450"
       transform="translate(-2)">
      <g
         id="g17589"
         transform="matrix(0.78578592,0,0,0.7433512,-151.27889,-70.752244)">
        <g
           id="g9777"
           transform="matrix(1.3276547,0.04263341,-0.05616365,1.2166446,136.16846,86.030681)">
          <path
             style="opacity:1;fill:url(#linearGradient9094);fill-opacity:1;stroke:#e90000;stroke-width:0;stroke-dasharray:none;stroke-opacity:1"
             d="m 53.127384,54.031347 6.33525,-10.114633 27.064991,-0.555842 c 16.559635,3.677439 19.159675,21.520116 5.654729,28.223541 l 8.503916,7.985133 -0.85449,-15.947451 c 0.73951,-1.484703 1.12672,-3.171409 0.89466,-5.213208 l 9.45714,-0.09585 0.73456,14.813211 15.44266,-0.619633 c 7.76214,-5.715532 9.65653,-13.190171 -0.75065,-19.444912 l -25.54693,-0.125466 6.46899,-10.354853 19.41716,-0.209337 c 26.04107,3.586416 21.13879,37.872471 0.77401,40.40706 L 89.577897,84.002256 78.569442,73.788763 63.756784,73.993773 64.184601,84.106957 53.319919,84.095107 52.895332,63.853643 86.386845,62.994092 c 2.519068,-1.792731 5.788567,-6.443982 -0.401286,-9.486009 z"
             id="path6995"
             sodipodi:nodetypes="cccccccccccccccccccccccc" />
        </g>
        <g
           id="g15289"
           transform="translate(189.89851,47.379106)">
          <path
             style="opacity:0.81;fill:#000000;fill-opacity:0.0627451;stroke:#000000;stroke-width:0;stroke-miterlimit:0;stroke-opacity:1"
             d="m 14.841659,88.074134 c 2.92619,0.06588 8.777503,0.197613 11.702632,0.247463 2.925128,0.04985 2.925141,0.01695 3.001553,-0.213841 0.07641,-0.230791 0.229387,-0.658927 0.535444,-1.120255 0.306057,-0.461328 0.764977,-0.955327 1.415165,-1.597574 0.650187,-0.642246 1.491539,-1.432648 2.428536,-2.288944 0.936998,-0.856296 1.969565,-1.778421 3.059517,-2.766438 1.089953,-0.988016 2.237247,-2.04188 3.939265,-3.211103 1.702018,-1.169224 3.958361,-2.453614 5.966258,-3.474571 2.007896,-1.020957 3.767082,-1.778419 5.58369,-2.55237 1.816607,-0.77395 3.690522,-1.564348 5.315979,-2.157144 1.625456,-0.592797 3.002206,-0.987995 4.302488,-1.38321 1.300283,-0.395216 2.52407,-0.790415 3.862739,-1.070293 1.338668,-0.279879 2.791922,-0.444545 4.876282,-0.576247 2.08436,-0.131702 4.799613,-0.230502 6.922217,-0.197488 2.122604,0.03301 3.652341,0.19768 5.124779,0.477727 1.472438,0.280047 2.887437,0.675243 3.996512,0.971627 1.109076,0.296383 1.912171,0.49398 3.09776,0.889275 1.185588,0.395295 2.75356,0.988093 4.053824,1.630461 1.300264,0.642369 2.332824,1.333962 3.346275,2.058549 1.013452,0.724588 2.007775,1.482051 2.409059,1.663338 0.401287,0.181288 0.210063,-0.21391 -0.09576,-0.691487 -0.305827,-0.477577 -0.726494,-1.037438 -1.261862,-1.679687 -0.535369,-0.642249 -1.185498,-1.366773 -2.179761,-2.239621 -0.994263,-0.872848 -2.332773,-1.893776 -3.346256,-2.684176 -1.013484,-0.7904 -1.701859,-1.350262 -2.906497,-2.074941 -1.204638,-0.72468 -2.925572,-1.61387 -4.264111,-2.256141 -1.338538,-0.64227 -2.294619,-1.037468 -3.384587,-1.38338 -1.089968,-0.345912 -2.313755,-0.642311 -3.384589,-0.922224 -1.070834,-0.279913 -1.988661,-0.543378 -3.384608,-0.806945 -1.395947,-0.263566 -3.269854,-0.52703 -4.914392,-0.691756 -1.644539,-0.164727 -3.059526,-0.230593 -4.723199,-0.214177 -1.663674,0.01642 -3.575834,0.115216 -5.602828,0.312785 -2.026993,0.19757 -4.168601,0.493967 -6.252967,0.872683 -2.084366,0.378716 -4.111251,0.839781 -5.774979,1.333765 -1.663729,0.493984 -2.963992,1.020914 -4.340788,1.580793 -1.376796,0.55988 -2.830036,1.152676 -4.168686,1.811365 -1.338651,0.658689 -2.562428,1.383216 -3.690623,2.041897 -1.128196,0.658681 -2.160759,1.251479 -3.346339,1.943099 -1.18558,0.69162 -2.524091,1.482017 -3.76715,2.387756 -1.243059,0.90574 -2.390356,1.926668 -3.480316,2.898222 -1.08996,0.971554 -2.122526,1.893683 -3.250763,2.964066 -1.128236,1.070384 -2.352012,2.288905 -3.42289,3.44164 -1.070879,1.152735 -1.988715,2.23953 -2.677138,3.095854 -0.688423,0.856324 -1.14734,1.482051 -1.816611,2.371265 -0.669271,0.889213 -1.548863,2.041873 -1.988642,2.618181 -0.439779,0.576307 -0.439819,0.576323 2.486371,0.642202 z"
             id="path15781"
             inkscape:path-effect="#path-effect15783-3-9"
             inkscape:original-d="m 11.915469,88.008255 c 5.852361,0.132613 11.703674,0.264338 17.553937,0.395202 0.001,-0.03201 0.001,-0.06491 4e-5,-0.09882 0.154028,-0.427237 0.307,-0.855374 0.458926,-1.284409 0.459985,-0.493115 0.918903,-0.987116 1.37678,-1.482017 0.84243,-0.789528 1.68378,-1.579931 2.524096,-2.371244 1.033655,-0.921254 2.066217,-1.843385 3.097754,-2.766425 1.148387,-1.053001 2.295681,-2.106865 3.441949,-3.161652 2.257481,-1.283543 4.513827,-2.567927 6.769163,-3.853246 1.760301,-0.756592 3.519489,-1.514049 5.277661,-2.272428 1.875033,-0.789523 3.748947,-1.579923 5.621841,-2.371232 1.377858,-0.394311 2.754607,-0.78951 4.130339,-1.185619 1.224876,-0.394312 2.448663,-0.789513 3.671406,-1.185612 1.454346,-0.163773 2.907599,-0.328446 4.359813,-0.494006 2.716427,-0.09791 5.43168,-0.196706 8.145946,-0.296407 1.53083,0.16552 3.060561,0.330236 4.589267,0.494006 1.416094,0.396118 2.831094,0.791312 4.245067,1.185608 0.804186,0.198514 1.60728,0.396117 2.409361,0.592809 1.569079,0.593728 3.137053,1.18652 4.704,1.778425 1.033653,0.692532 2.066212,1.384126 3.09776,2.074835 0.995399,0.758391 1.989719,1.515858 2.983015,2.272426 -0.19018,-0.394304 -0.381389,-0.789507 -0.57367,-1.185609 -0.419639,-0.558987 -0.840305,-1.118848 -1.26204,-1.679632 -0.649105,-0.723657 -1.299239,-1.448176 -1.950438,-2.17363 -1.337508,-1.02006 -2.676014,-2.040993 -4.015601,-3.062837 -0.687361,-0.558982 -1.375733,-1.118849 -2.065174,-1.679627 -1.71996,-0.888321 -3.440893,-1.777514 -5.16292,-2.667631 -0.955066,-0.394314 -1.911146,-0.789515 -2.868293,-1.185614 -1.222774,-0.295505 -2.44656,-0.591908 -3.671414,-0.88921 -0.916826,-0.262579 -1.834653,-0.526043 -2.753559,-0.790419 -1.872934,-0.262564 -3.74684,-0.526036 -5.621854,-0.79041 -1.413996,-0.06502 -2.828987,-0.130809 -4.245053,-0.197604 -1.91119,0.09971 -3.823351,0.198506 -5.736591,0.296404 -2.140653,0.297319 -4.282261,0.593716 -6.424971,0.889214 -2.025919,0.461984 -4.052804,0.923047 -6.080778,1.383222 -1.299266,0.527854 -2.599528,1.054787 -3.900871,1.58082 -1.452248,0.593721 -2.905486,1.186521 -4.359801,1.778421 -1.222781,0.725469 -2.44656,1.449992 -3.671412,2.173627 -1.031558,0.59373 -2.064122,1.186526 -3.097754,1.778434 -1.337515,0.791322 -2.676024,1.581722 -4.015607,2.371234 -1.146291,1.021864 -2.293585,2.042794 -3.441949,3.062836 -1.031556,0.923064 -2.06412,1.845194 -3.097753,2.766437 -1.222782,1.219477 -2.446561,2.437995 -3.671413,3.655651 -0.916822,1.087729 -1.834658,2.174525 -2.753558,3.260446 -0.457889,0.626651 -0.916806,1.252379 -1.37678,1.877221 -0.878579,1.153609 -1.758169,2.306271 -2.638827,3.458046 z" />
          <path
             style="opacity:0.17;fill:#0079a0;fill-opacity:0.0627451;stroke:#b7c4c8;stroke-width:0;stroke-miterlimit:0;stroke-opacity:0.796078"
             d="m 21.799563,75.474375 c -1.139327,0.25405 -2.464052,0.575912 -2.835661,1.694455 -0.712803,0.401387 -0.405405,1.268083 -1.158285,1.593479 -0.979299,0.792126 -1.03344,2.044926 -0.99603,3.099074 -0.738777,0.781988 -0.865398,1.898626 -0.440497,2.811716 0.207194,0.6961 -0.423458,0.718105 -1.053073,0.850375 -1.943443,0.351561 -2.871997,2.723877 -1.296452,3.874388 1.190818,1.110803 3.020049,0.532014 4.491931,0.542579 1.463016,0.01859 2.897805,-0.248989 4.322758,-0.454426 1.494955,0.301967 2.967762,-0.542009 3.422714,-1.76884 0.531824,-0.873328 0.190418,-1.982003 -0.549025,-2.663917 0.157047,-0.950902 -0.420745,-1.846849 -1.0892,-2.503881 -0.251704,-0.533855 0.127547,-0.982079 0.179681,-1.514061 1.743871,-0.694736 2.003504,-2.809691 0.771911,-3.982506 -0.673132,-1.131268 -2.332866,-1.781507 -3.770778,-1.578436 z m 0.276024,3.318765 c 1.027949,0.107213 2.062549,1.109346 1.636177,1.988375 -0.39615,-0.353424 -0.924011,-0.581885 -1.475191,-0.695086 0.581475,0.123824 1.86254,0.840786 0.861165,1.248027 -0.388023,0.421563 -1.607063,0.462201 -1.869871,0.376013 0.624681,0.250797 1.50066,0.213094 2.035162,0.0963 -0.573488,0.399561 -0.6373,0.48619 -1.50926,0.625069 -0.434023,0.0482 -0.478092,-0.213009 -0.971153,0.08042 -0.719934,0.123559 -1.790062,-0.392238 -0.883846,-0.387531 -0.913354,0.286833 -1.544577,-0.668315 -1.552513,-1.376793 0.228275,0.432605 1.051572,0.913475 1.378533,0.959529 -0.651145,-0.239073 -1.854896,-1.092504 -0.897789,-1.613397 0.953143,0.886384 0.0413,-0.133471 0.301692,-0.179306 -0.775314,-0.01515 0.0099,-0.94426 0.591977,-0.940421 0.867021,-0.09096 1.472821,-0.188036 2.354917,-0.181204 z m -0.815395,0.188848 c 0.712884,0.400904 0.241557,-0.04317 0,0 z m -0.10901,-0.03469 c 0.09629,0.02247 -0.108171,-0.03125 0,0 z m -0.617646,0.05023 c 0.0159,-0.0031 0.06771,-0.03414 0,0 z m -0.312152,0.168662 c 0.01686,-0.0056 0.06419,-0.04534 0,0 z m -0.237044,0.173559 c 0.01675,-0.008 0.06093,-0.05592 0,0 z m -0.175564,0.165384 c 0.01621,-0.01166 0.05814,-0.06576 0,0 z m -0.122955,0.143545 c 0.01525,-0.01328 0.05656,-0.07763 0,0 z m -0.105528,0.15228 c 0.0076,-0.0083 0.02709,-0.04592 0,0 z m -0.877509,0.189936 c -0.28534,1.410439 -0.462088,-0.667951 0,0 z m 0.789096,-0.03254 c 0.0074,-0.0071 0.02221,-0.05131 0,0 z m -0.111545,0.273993 c 0.01379,-0.0193 0.02761,-0.107921 0,0 z m 0.09095,0.285734 c -0.0086,-0.01002 -0.05982,-0.04116 0,0 z m 0.220882,0.14546 c -0.0111,-0.0101 -0.06659,-0.03528 0,0 z m -0.385039,0.04393 c 0.0066,-0.02513 -0.0042,-0.122479 0,0 z m 0.602117,0.06746 c -0.01361,-0.01018 -0.07336,-0.0305 0,0 z m -0.59071,0.11461 c 0.0021,-0.02723 -0.01828,-0.124796 0,0 z m 0.77832,-0.03934 c -0.01412,-0.0078 -0.0805,-0.0261 0,0 z m 0.198065,0.06058 c 0.0336,0.0072 -0.08667,-0.02179 0,0 z m -0.95262,0.111894 c -2.13e-4,-0.02706 -0.03193,-0.128658 0,0 z m 0.03422,0.123346 c -0.0026,-0.02701 -0.04462,-0.127152 0,0 z m 0.04468,0.116213 c -0.0061,-0.02664 -0.05559,-0.123923 0,0 z m 0.04912,0.100637 c -0.0079,-0.02474 -0.06561,-0.119322 0,0 z m 0.06624,0.1113 c -0.009,-0.02368 -0.07547,-0.110987 0,0 z m 0.09318,0.128273 c -0.01082,-0.02191 -0.08383,-0.10029 0,0 z m 0.320708,0.313838 c -0.01205,-0.01842 -0.09774,-0.06967 0,0 z m 0.275706,0.1842 c -0.01514,-0.01633 -0.09967,-0.0506 0,0 z m 0.307715,0.146823 c -0.0097,-0.0064 -0.04951,-0.01706 0,0 z m 0.235458,0.08164 c -0.0085,-0.0051 -0.05233,-0.01265 0,0 z M 20.02587,83.15093 c 1.212859,0.208335 0.970509,0.714446 -0.114718,0.515241 -1.145635,-0.278431 -1.429698,-0.706675 0.114718,-0.515241 z m -2.015194,0.519327 c 0.907877,0.571911 2.245228,0.601477 3.152881,0.01498 0.699876,0.457254 0.899246,1.037849 -0.04111,1.263856 -1.013609,0.863827 1.026379,-0.978646 0.856501,0.09659 0.0178,0.690688 -0.484498,1.860206 -1.408322,1.733747 -0.864193,-0.462445 -0.528543,-0.278951 -1.081595,-0.763852 -0.243879,-0.809814 -0.139725,-0.235516 0.0025,0.247524 -1.220772,-0.194407 -0.872063,-1.072116 0.147118,-1.266361 1.157588,-0.198061 0.27575,-0.102633 -0.375925,-0.07872 -0.909173,0.260247 -1.615534,0.03195 -1.346984,-0.902736 -0.02757,-0.09324 0.03251,-0.321077 0.09489,-0.344978 z m 2.702558,1.604946 c 0.01295,-0.0069 0.03099,-0.03483 0,0 z m -0.07669,0.07832 c -0.05264,0.05497 0.04203,-0.04008 0,0 z M 18.27117,86.09227 c 0.655489,0.199259 1.423277,0.09493 1.574063,0.818436 0.537287,0.586927 -1.209937,0.307162 -1.570183,0.06545 -0.579145,-0.06965 -0.06107,-0.695026 -0.0039,-0.883877 z"
             id="path16619" />
          <path
             style="fill:#062f43;fill-opacity:1;stroke:#000000;stroke-width:0.680701;stroke-miterlimit:0;stroke-dasharray:none;stroke-opacity:0"
             d="M 12.684587,87.521388 C 53.643886,38.593409 100.18981,65.817224 99.32876,72.989871 91.182441,66.838421 62.657338,45.57716 24.141967,88.080297 Z"
             id="path19083"
             sodipodi:nodetypes="cccc" />
          <g
             id="g15280">
            <path
               style="opacity:0.8;fill:#009ad3;fill-opacity:1;stroke:#007a90;stroke-width:0.680701;stroke-miterlimit:0;stroke-dasharray:none;stroke-opacity:1"
               d="m 115.90931,87.800845 12.5704,-10e-7 C 122.8971,61.507272 99.786108,39.79183 52.868866,54.546007 94.270307,45.377017 115.52419,70.174288 115.90931,87.800845 Z"
               id="path19085"
               sodipodi:nodetypes="cccc" />
            <path
               style="fill:url(#linearGradient909);fill-opacity:1;stroke:#000000;stroke-width:0;stroke-miterlimit:0;stroke-dasharray:none;stroke-opacity:1"
               d="m 23.651343,88.121602 4.977946,0.01306 C 49.230258,68.375741 71.604827,53.868075 98.767307,72.792852 87.178147,61.521782 57.638064,49.481078 23.651343,88.121602 Z"
               id="path21393"
               sodipodi:nodetypes="cccc" />
            <path
               style="fill:url(#linearGradient1702);fill-opacity:1;stroke:#000000;stroke-width:0.388971;stroke-miterlimit:0;stroke-dasharray:none;stroke-opacity:1"
               d="m 111.84672,88.20586 4.81872,-0.395209 C 111.65087,50.993416 68.765666,49.215583 52.874661,54.218199 75.23152,54.175088 99.556601,51.533249 111.84672,88.20586 Z"
               id="path21395"
               sodipodi:nodetypes="cccc" />
          </g>
        </g>
        <g
           id="g15295"
           transform="translate(194.1015,56.931345)">
          <path
             style="fill:#009ad3;fill-opacity:1;stroke:#007a90;stroke-width:0;stroke-miterlimit:0;stroke-dasharray:none;stroke-opacity:0.956863"
             d="m 1.0816738,139.61528 10.8921702,0.27947 c 2.866282,19.42507 34.556545,29.7797 48.358751,22.51988 -26.225116,8.98962 -51.6143025,2.03266 -59.2509217,-22.79934 z"
             id="path19871"
             sodipodi:nodetypes="cccc" />
          <path
             style="fill:#062f43;fill-opacity:1;stroke:#007a90;stroke-width:0;stroke-miterlimit:0;stroke-dasharray:none;stroke-opacity:1"
             d="m 103.61729,140.22214 14.4781,0.11573 c -25.548736,45.11236 -89.182362,50.52959 -107.088322,21.51784 29.565378,27.74444 79.808799,1.98029 92.610222,-21.63359 z"
             id="path19927"
             sodipodi:nodetypes="ccccc" />
          <path
             style="fill:url(#linearGradient5296);fill-opacity:1;stroke:#000000;stroke-width:0;stroke-miterlimit:0;stroke-dasharray:none;stroke-opacity:1"
             d="m 11.652755,139.9745 5.884563,0.39847 c 10.144845,25.27588 35.249468,22.81163 42.450697,22.13149 -4.458325,4.67228 -40.80757,4.09864 -48.33526,-22.52996 z"
             id="path21391"
             sodipodi:nodetypes="cccc" />
          <path
             style="fill:url(#linearGradient5373);fill-opacity:1;stroke:#000000;stroke-width:0;stroke-miterlimit:0;stroke-dasharray:none;stroke-opacity:1"
             d="m 97.4538,140.0223 7.30446,0.13075 c -24.740658,46.35837 -84.903348,37.22886 -93.186983,21.95615 12.691565,13.91935 56.282712,14.46983 85.882525,-22.08695 z"
             id="path21397"
             sodipodi:nodetypes="cccc" />
        </g>
      </g>
      <g
         id="g19613"
         transform="matrix(0.99388615,0,0,1,-10.003979,-215.49852)">
        <g
           id="g18055"
           transform="matrix(0.81960594,0,0,0.9233702,71.851351,-29.279893)">
          <g
             id="g20502"
             transform="matrix(3.8026269,0,0,3.732763,-415.46356,-504.48288)"
             style="fill:#062f43;fill-opacity:1">
            <path
               style="opacity:1;fill:#062f43;fill-opacity:1;stroke:#000000;stroke-width:0;stroke-dasharray:none"
               d="m 122.69706,209.50909 7.37524,0.0583 c 4.33908,1.50195 4.1913,7.68295 0.2332,9.03685 l 3.67304,6.47155 -3.52728,-0.1166 -4.72249,-8.89109 3.32323,-0.0875 c 1.39293,-0.84538 1.50279,-2.71106 -0.0874,-3.49814 l -6.3125,0.0583 z"
               id="path17869"
               sodipodi:nodetypes="cccccccccc" />
            <path
               style="opacity:1;fill:#062f43;fill-opacity:1;stroke:#000000;stroke-width:0;stroke-dasharray:none"
               d="m 137.73904,209.39249 7.66674,0.0583 0.0292,0.0292 -2.01143,3.00256 h -2.68191 l -0.0583,3.14832 h 4.11031 l 0.0292,3.23578 -4.08116,-0.0874 v 3.17746 l 2.94427,0.0292 1.95312,3.09002 -7.95825,-0.0583 z"
               id="path17875"
               sodipodi:nodetypes="cccccccccccccc" />
            <path
               style="opacity:1;fill:#062f43;fill-opacity:1;stroke:#000000;stroke-width:0;stroke-dasharray:none"
               d="m 150.24487,209.42164 7.78335,0.0583 -1.89483,2.97341 -2.7985,0.0583 0.0292,3.23578 3.8771,-0.0583 0.0583,3.11916 -3.90625,0.0583 v 6.23834 l -3.20662,-0.11661 z"
               id="path17877" />
            <path
               style="opacity:1;fill:#062f43;fill-opacity:1;stroke:#000000;stroke-width:0;stroke-dasharray:none"
               d="m 181.20336,224.93004 -3.00257,-3.14832 -0.0583,-12.47669 8.68703,8.9494 v -8.77449 l 3.14832,2.5653 -0.0874,13.23461 -8.71618,-8.71618 z"
               id="path17879"
               sodipodi:nodetypes="ccccccccc" />
            <path
               style="opacity:1;fill:#062f43;fill-opacity:1;stroke:#000000;stroke-width:0;stroke-dasharray:none"
               d="m 160.68097,209.45079 4.46012,1.1952 2.47785,4.19775 2.44869,-4.02285 4.57672,-1.48671 -5.39295,8.71619 -0.0583,6.93796 -3.03172,0.0292 -0.0874,-7.11287 z"
               id="path17881" />
            <path
               style="opacity:1;fill:#062f43;fill-opacity:1;stroke:#000000;stroke-width:0;stroke-dasharray:none"
               d="m 193.78944,212.32368 h 3.20008 l 1.76152,0.0293 c 5.0986,0.22389 6.0196,8.71683 0.14678,9.43297 l -5.02031,-0.0292 -0.088,3.12485 5.16711,-0.0293 c 7.67173,0.31914 11.60965,-13.8902 -0.23487,-15.59508 l -4.90288,-0.14602 z"
               id="path17883"
               sodipodi:nodetypes="cccccccccc" />
            <path
               style="opacity:1;fill:#062f43;fill-opacity:1;stroke:#000000;stroke-width:0;stroke-dasharray:none"
               d="m 206.72746,225.87116 6.52984,-16.32463 6.82136,16.44123 -4.22691,-1.86567 -0.93283,-2.85681 -3.06087,0.0583 -1.10774,2.82765 z"
               id="path17885" />
            <path
               style="fill:#062f43;fill-opacity:1;stroke:#000000;stroke-width:0;stroke-dasharray:none"
               d="m 229.61402,225.95984 6.52984,-16.32463 6.82136,16.44123 -4.22691,-1.86567 -0.93283,-2.85681 -3.06087,0.0583 -1.10774,2.82765 z"
               id="path17885-5" />
            <path
               style="opacity:1;fill:#062f43;fill-opacity:1;stroke:#000000;stroke-width:0;stroke-dasharray:none"
               d="m 219.49492,209.75145 1.39926,3.11917 2.44869,-0.0292 v 12.56414 l 3.17748,-0.0292 -0.0583,-12.56413 2.41955,0.0292 1.3701,-3.09001 z"
               id="path17889" />
          </g>
          <g
             id="g22391"
             style="fill:#062f43;fill-opacity:1"
             transform="matrix(0.71629721,0,0,0.60766914,119.63614,238.56942)">
            <g
               id="g22311"
               style="fill:#062f43;fill-opacity:1">
              <g
                 id="g21467"
                 transform="translate(30.41272,-46.426091)"
                 style="fill:#062f43;fill-opacity:1">
                <g
                   fill="#0079a0"
                   fill-opacity="1"
                   id="g21223"
                   style="fill:#062f43;fill-opacity:1">
                  <g
                     transform="translate(35.951126,255.6328)"
                     id="g21221"
                     style="fill:#062f43;fill-opacity:1">
                    <g
                       id="g21219"
                       style="fill:#062f43;fill-opacity:1">
                      <path
                         d="M 7.5,0 H 4.03125 L 0.4375,-15.703125 H 3.53125 L 5.890625,-4.65625 h 0.28125 l 2.8125,-11.046875 h 2.65625 L 14.5,-4.65625 h 0.265625 l 2.390625,-11.046875 h 2.984375 L 16.546875,0 h -3.46875 l -2.75,-10.125 H 10.09375 Z m 0,0"
                         id="path21217"
                         style="fill:#062f43;fill-opacity:1" />
                    </g>
                  </g>
                </g>
                <g
                   fill="#0079a0"
                   fill-opacity="1"
                   id="g21231"
                   style="fill:#062f43;fill-opacity:1">
                  <g
                     transform="translate(56.508021,255.6328)"
                     id="g21229"
                     style="fill:#062f43;fill-opacity:1">
                    <g
                       id="g21227"
                       style="fill:#062f43;fill-opacity:1">
                      <path
                         d="m 5.140625,-6.890625 v 4.296875 h 7.5 V 0 H 2.046875 V -15.703125 H 12.46875 v 2.59375 H 5.140625 V -9.4375 h 6.40625 v 2.546875 z m 0,0"
                         id="path21225"
                         style="fill:#062f43;fill-opacity:1" />
                    </g>
                  </g>
                </g>
                <g
                   fill="#0079a0"
                   fill-opacity="1"
                   id="g21245"
                   style="fill:#062f43;fill-opacity:1">
                  <g
                     transform="translate(75.196118,255.6328)"
                     id="g21243"
                     style="fill:#062f43;fill-opacity:1">
                    <g
                       id="g21241"
                       style="fill:#062f43;fill-opacity:1">
                      <path
                         d="M 2.046875,0 V -15.703125 H 8.34375 c 1.625,0 2.847656,0.375 3.671875,1.125 0.832031,0.75 1.25,1.78125 1.25,3.09375 0,0.949219 -0.246094,1.730469 -0.734375,2.34375 C 12.050781,-8.535156 11.332031,-8.070312 10.375,-7.75 v 0.234375 c 0.5,0.210937 0.898438,0.527344 1.203125,0.953125 0.300781,0.417969 0.585937,1.042969 0.859375,1.875 L 14.015625,0 H 10.8125 L 9.28125,-4.6875 C 9.125,-5.164062 8.945312,-5.535156 8.75,-5.796875 8.550781,-6.054688 8.300781,-6.242188 8,-6.359375 c -0.304688,-0.125 -0.699219,-0.1875 -1.1875,-0.1875 H 5.140625 V 0 Z M 7.96875,-9 c 1.507812,0 2.265625,-0.703125 2.265625,-2.109375 0,-1.425781 -0.757813,-2.140625 -2.265625,-2.140625 H 5.140625 V -9 Z m 0,0"
                         id="path21239"
                         style="fill:#062f43;fill-opacity:1" />
                    </g>
                  </g>
                </g>
                <g
                   fill="#0079a0"
                   fill-opacity="1"
                   id="g21253"
                   style="fill:#062f43;fill-opacity:1">
                  <g
                     transform="translate(89.878086,255.6328)"
                     id="g21251"
                     style="fill:#062f43;fill-opacity:1">
                    <g
                       id="g21249"
                       style="fill:#062f43;fill-opacity:1">
                      <path
                         d="m 5.140625,-6.890625 v 4.296875 h 7.5 V 0 H 2.046875 V -15.703125 H 12.46875 v 2.59375 H 5.140625 V -9.4375 h 6.40625 v 2.546875 z m 0,0"
                         id="path21247"
                         style="fill:#062f43;fill-opacity:1" />
                    </g>
                  </g>
                </g>
                <g
                   fill="#0079a0"
                   fill-opacity="1"
                   id="g21261"
                   style="fill:#062f43;fill-opacity:1">
                  <g
                     transform="translate(103.37862,255.6328)"
                     id="g21259"
                     style="fill:#062f43;fill-opacity:1">
                    <g
                       id="g21257"
                       style="fill:#062f43;fill-opacity:1">
                      <path
                         d="m 7.6875,-15.703125 c 2.550781,0 4.5,0.664063 5.84375,1.984375 1.34375,1.3125 2.015625,3.265625 2.015625,5.859375 0,2.59375 -0.671875,4.554687 -2.015625,5.875 C 12.1875,-0.660156 10.238281,0 7.6875,0 H 2.046875 v -15.703125 z m -0.171875,13.09375 c 1.613281,0 2.820313,-0.410156 3.625,-1.234375 0.800781,-0.832031 1.203125,-2.171875 1.203125,-4.015625 0,-1.832031 -0.402344,-3.160156 -1.203125,-3.984375 -0.804687,-0.832031 -2.011719,-1.25 -3.625,-1.25 h -2.375 v 10.484375 z m 0,0"
                         id="path21255"
                         style="fill:#062f43;fill-opacity:1" />
                    </g>
                  </g>
                </g>
                <g
                   fill="#0079a0"
                   fill-opacity="1"
                   id="g21269"
                   style="fill:#062f43;fill-opacity:1">
                  <g
                     transform="translate(120.16568,255.6328)"
                     id="g21267"
                     style="fill:#062f43;fill-opacity:1">
                    <g
                       id="g21265"
                       style="fill:#062f43;fill-opacity:1">
                      <path
                         d="m 5.140625,-6.890625 v 4.296875 h 7.5 V 0 H 2.046875 V -15.703125 H 12.46875 v 2.59375 H 5.140625 V -9.4375 h 6.40625 v 2.546875 z m 0,0"
                         id="path21263"
                         style="fill:#062f43;fill-opacity:1" />
                    </g>
                  </g>
                </g>
                <g
                   fill="#0079a0"
                   fill-opacity="1"
                   id="g21277"
                   style="fill:#062f43;fill-opacity:1">
                  <g
                     transform="translate(133.66622,255.6328)"
                     id="g21275"
                     style="fill:#062f43;fill-opacity:1">
                    <g
                       id="g21273"
                       style="fill:#062f43;fill-opacity:1">
                      <path
                         d="m 12,-15.703125 v 2.59375 H 5.140625 v 4.15625 h 6.21875 V -6.375 H 5.140625 V 0 h -3.09375 v -15.703125 z m 0,0"
                         id="path21271"
                         style="fill:#062f43;fill-opacity:1" />
                    </g>
                  </g>
                </g>
                <g
                   fill="#0079a0"
                   fill-opacity="1"
                   id="g21285"
                   style="fill:#062f43;fill-opacity:1">
                  <g
                     transform="translate(146.36123,255.6328)"
                     id="g21283"
                     style="fill:#062f43;fill-opacity:1">
                    <g
                       id="g21281"
                       style="fill:#062f43;fill-opacity:1">
                      <path
                         d="m 5.140625,0 h -3.09375 v -15.703125 h 3.09375 z m 0,0"
                         id="path21279"
                         style="fill:#062f43;fill-opacity:1" />
                    </g>
                  </g>
                </g>
                <g
                   fill="#0079a0"
                   fill-opacity="1"
                   id="g21293"
                   style="fill:#062f43;fill-opacity:1">
                  <g
                     transform="translate(153.55722,255.6328)"
                     id="g21291"
                     style="fill:#062f43;fill-opacity:1">
                    <g
                       id="g21289"
                       style="fill:#062f43;fill-opacity:1">
                      <path
                         d="m 5.046875,0 h -3 V -15.703125 H 5.59375 L 11.90625,-5.59375 12.1875,-5.625 v -10.078125 h 2.984375 V 0 h -3.1875 L 5.3125,-10.8125 5.046875,-10.76563 Z m 0,0"
                         id="path21287"
                         style="fill:#062f43;fill-opacity:1" />
                    </g>
                  </g>
                </g>
                <g
                   fill="#0079a0"
                   fill-opacity="1"
                   id="g21301"
                   style="fill:#062f43;fill-opacity:1">
                  <g
                     transform="translate(170.77389,255.6328)"
                     id="g21299"
                     style="fill:#062f43;fill-opacity:1">
                    <g
                       id="g21297"
                       style="fill:#062f43;fill-opacity:1">
                      <path
                         d="m 5.140625,-6.890625 v 4.296875 h 7.5 V 0 H 2.046875 V -15.703125 H 12.46875 v 2.59375 H 5.140625 V -9.4375 h 6.40625 v 2.546875 z m 0,0"
                         id="path21295"
                         style="fill:#062f43;fill-opacity:1" />
                    </g>
                  </g>
                </g>
                <g
                   fill="#0079a0"
                   fill-opacity="1"
                   id="g21315"
                   style="fill:#062f43;fill-opacity:1">
                  <g
                     transform="translate(189.46199,255.6328)"
                     id="g21313"
                     style="fill:#062f43;fill-opacity:1">
                    <g
                       id="g21311"
                       style="fill:#062f43;fill-opacity:1">
                      <path
                         d="M 8.609375,0 H 5.5 v -6.171875 l -5.421875,-9.53125 H 3.40625 L 7,-9.53125 h 0.265625 l 3.515625,-6.171875 h 3.25 l -5.421875,9.53125 z m 0,0"
                         id="path21309"
                         style="fill:#062f43;fill-opacity:1" />
                    </g>
                  </g>
                </g>
                <g
                   fill="#0079a0"
                   fill-opacity="1"
                   id="g21323"
                   style="fill:#062f43;fill-opacity:1">
                  <g
                     transform="translate(203.56398,255.6328)"
                     id="g21321"
                     style="fill:#062f43;fill-opacity:1">
                    <g
                       id="g21319"
                       style="fill:#062f43;fill-opacity:1">
                      <path
                         d="m 8.5625,0.21875 c -1.4375,0 -2.710938,-0.2890625 -3.8125,-0.875 -1.09375,-0.582031 -1.953125,-1.476562 -2.578125,-2.6875 -0.625,-1.207031 -0.9375,-2.710938 -0.9375,-4.515625 0,-1.789063 0.3125,-3.289063 0.9375,-4.5 0.625,-1.207031 1.484375,-2.101563 2.578125,-2.6875 1.101562,-0.59375 2.375,-0.890625 3.8125,-0.890625 1.4375,0 2.703125,0.292969 3.796875,0.875 1.101563,0.585938 1.960937,1.484375 2.578125,2.703125 0.613281,1.210937 0.921875,2.710937 0.921875,4.5 0,1.804687 -0.308594,3.308594 -0.921875,4.515625 -0.617188,1.210938 -1.476562,2.105469 -2.578125,2.6875 C 11.265625,-0.0703125 10,0.21875 8.5625,0.21875 Z m 0,-2.6875 c 1.332031,0 2.347656,-0.425781 3.046875,-1.28125 0.707031,-0.851562 1.0625,-2.222656 1.0625,-4.109375 0,-1.875 -0.355469,-3.238281 -1.0625,-4.09375 C 10.910156,-12.816406 9.894531,-13.25 8.5625,-13.25 c -1.34375,0 -2.371094,0.433594 -3.078125,1.296875 -0.699219,0.855469 -1.046875,2.21875 -1.046875,4.09375 0,1.886719 0.347656,3.257813 1.046875,4.109375 0.707031,0.855469 1.734375,1.28125 3.078125,1.28125 z m 0,0"
                         id="path21317"
                         style="fill:#062f43;fill-opacity:1" />
                    </g>
                  </g>
                </g>
                <g
                   fill="#0079a0"
                   fill-opacity="1"
                   id="g21331"
                   style="fill:#062f43;fill-opacity:1">
                  <g
                     transform="translate(220.67325,255.6328)"
                     id="g21329"
                     style="fill:#062f43;fill-opacity:1">
                    <g
                       id="g21327"
                       style="fill:#062f43;fill-opacity:1">
                      <path
                         d="M 8.328125,0.21875 C 6.160156,0.21875 4.550781,-0.289062 3.5,-1.3125 2.457031,-2.34375 1.9375,-3.867188 1.9375,-5.890625 v -9.8125 h 3.046875 v 9.796875 c 0,1.148438 0.273437,2.007812 0.828125,2.578125 0.550781,0.574219 1.390625,0.859375 2.515625,0.859375 2.226563,0 3.34375,-1.144531 3.34375,-3.4375 v -9.796875 h 3.03125 v 9.8125 c 0,2.023437 -0.527344,3.546875 -1.578125,4.578125 -1.042969,1.023438 -2.640625,1.53125 -4.796875,1.53125 z m 0,0"
                         id="path21325"
                         style="fill:#062f43;fill-opacity:1" />
                    </g>
                  </g>
                </g>
                <g
                   fill="#0079a0"
                   fill-opacity="1"
                   id="g21339"
                   style="fill:#062f43;fill-opacity:1">
                  <g
                     transform="translate(237.32069,255.6328)"
                     id="g21337"
                     style="fill:#062f43;fill-opacity:1">
                    <g
                       id="g21335"
                       style="fill:#062f43;fill-opacity:1">
                      <path
                         d="M 2.046875,0 V -15.703125 H 8.34375 c 1.625,0 2.847656,0.375 3.671875,1.125 0.832031,0.75 1.25,1.78125 1.25,3.09375 0,0.949219 -0.246094,1.730469 -0.734375,2.34375 C 12.050781,-8.535156 11.332031,-8.070312 10.375,-7.75 v 0.234375 c 0.5,0.210937 0.898438,0.527344 1.203125,0.953125 0.300781,0.417969 0.585937,1.042969 0.859375,1.875 L 14.015625,0 H 10.8125 L 9.28125,-4.6875 C 9.125,-5.164062 8.945312,-5.535156 8.75,-5.796875 8.550781,-6.054688 8.300781,-6.242188 8,-6.359375 c -0.304688,-0.125 -0.699219,-0.1875 -1.1875,-0.1875 H 5.140625 V 0 Z M 7.96875,-9 c 1.507812,0 2.265625,-0.703125 2.265625,-2.109375 0,-1.425781 -0.757813,-2.140625 -2.265625,-2.140625 H 5.140625 V -9 Z m 0,0"
                         id="path21333"
                         style="fill:#062f43;fill-opacity:1" />
                    </g>
                  </g>
                </g>
                <g
                   fill="#0079a0"
                   fill-opacity="1"
                   id="g21353"
                   style="fill:#062f43;fill-opacity:1">
                  <g
                     transform="translate(257.19022,255.6328)"
                     id="g21351"
                     style="fill:#062f43;fill-opacity:1">
                    <g
                       id="g21349"
                       style="fill:#062f43;fill-opacity:1">
                      <path
                         d="M 7.5,0 H 4.03125 L 0.4375,-15.703125 H 3.53125 L 5.890625,-4.65625 h 0.28125 l 2.8125,-11.046875 h 2.65625 L 14.5,-4.65625 h 0.265625 l 2.390625,-11.046875 h 2.984375 L 16.546875,0 h -3.46875 l -2.75,-10.125 H 10.09375 Z m 0,0"
                         id="path21347"
                         style="fill:#062f43;fill-opacity:1" />
                    </g>
                  </g>
                </g>
                <g
                   fill="#0079a0"
                   fill-opacity="1"
                   id="g21361"
                   style="fill:#062f43;fill-opacity:1">
                  <g
                     transform="translate(277.7471,255.6328)"
                     id="g21359"
                     style="fill:#062f43;fill-opacity:1">
                    <g
                       id="g21357"
                       style="fill:#062f43;fill-opacity:1">
                      <path
                         d="m 8.5625,0.21875 c -1.4375,0 -2.710938,-0.2890625 -3.8125,-0.875 -1.09375,-0.582031 -1.953125,-1.476562 -2.578125,-2.6875 -0.625,-1.207031 -0.9375,-2.710938 -0.9375,-4.515625 0,-1.789063 0.3125,-3.289063 0.9375,-4.5 0.625,-1.207031 1.484375,-2.101563 2.578125,-2.6875 1.101562,-0.59375 2.375,-0.890625 3.8125,-0.890625 1.4375,0 2.703125,0.292969 3.796875,0.875 1.101563,0.585938 1.960937,1.484375 2.578125,2.703125 0.613281,1.210937 0.921875,2.710937 0.921875,4.5 0,1.804687 -0.308594,3.308594 -0.921875,4.515625 -0.617188,1.210938 -1.476562,2.105469 -2.578125,2.6875 C 11.265625,-0.0703125 10,0.21875 8.5625,0.21875 Z m 0,-2.6875 c 1.332031,0 2.347656,-0.425781 3.046875,-1.28125 0.707031,-0.851562 1.0625,-2.222656 1.0625,-4.109375 0,-1.875 -0.355469,-3.238281 -1.0625,-4.09375 C 10.910156,-12.816406 9.894531,-13.25 8.5625,-13.25 c -1.34375,0 -2.371094,0.433594 -3.078125,1.296875 -0.699219,0.855469 -1.046875,2.21875 -1.046875,4.09375 0,1.886719 0.347656,3.257813 1.046875,4.109375 0.707031,0.855469 1.734375,1.28125 3.078125,1.28125 z m 0,0"
                         id="path21355"
                         style="fill:#062f43;fill-opacity:1" />
                    </g>
                  </g>
                </g>
                <g
                   fill="#0079a0"
                   fill-opacity="1"
                   id="g21369"
                   style="fill:#062f43;fill-opacity:1">
                  <g
                     transform="translate(294.85638,255.6328)"
                     id="g21367"
                     style="fill:#062f43;fill-opacity:1">
                    <g
                       id="g21365"
                       style="fill:#062f43;fill-opacity:1">
                      <path
                         d="M 2.046875,0 V -15.703125 H 8.34375 c 1.625,0 2.847656,0.375 3.671875,1.125 0.832031,0.75 1.25,1.78125 1.25,3.09375 0,0.949219 -0.246094,1.730469 -0.734375,2.34375 C 12.050781,-8.535156 11.332031,-8.070312 10.375,-7.75 v 0.234375 c 0.5,0.210937 0.898438,0.527344 1.203125,0.953125 0.300781,0.417969 0.585937,1.042969 0.859375,1.875 L 14.015625,0 H 10.8125 L 9.28125,-4.6875 C 9.125,-5.164062 8.945312,-5.535156 8.75,-5.796875 8.550781,-6.054688 8.300781,-6.242188 8,-6.359375 c -0.304688,-0.125 -0.699219,-0.1875 -1.1875,-0.1875 H 5.140625 V 0 Z M 7.96875,-9 c 1.507812,0 2.265625,-0.703125 2.265625,-2.109375 0,-1.425781 -0.757813,-2.140625 -2.265625,-2.140625 H 5.140625 V -9 Z m 0,0"
                         id="path21363"
                         style="fill:#062f43;fill-opacity:1" />
                    </g>
                  </g>
                </g>
                <g
                   fill="#0079a0"
                   fill-opacity="1"
                   id="g21377"
                   style="fill:#062f43;fill-opacity:1">
                  <g
                     transform="translate(309.53835,255.6328)"
                     id="g21375"
                     style="fill:#062f43;fill-opacity:1">
                    <g
                       id="g21373"
                       style="fill:#062f43;fill-opacity:1">
                      <path
                         d="M 5.140625,-15.703125 V -2.59375 h 7.0625 V 0 H 2.046875 v -15.703125 z m 0,0"
                         id="path21371"
                         style="fill:#062f43;fill-opacity:1" />
                    </g>
                  </g>
                </g>
                <g
                   fill="#0079a0"
                   fill-opacity="1"
                   id="g21385"
                   style="fill:#062f43;fill-opacity:1">
                  <g
                     transform="translate(322.25484,255.6328)"
                     id="g21383"
                     style="fill:#062f43;fill-opacity:1">
                    <g
                       id="g21381"
                       style="fill:#062f43;fill-opacity:1">
                      <path
                         d="m 7.6875,-15.703125 c 2.550781,0 4.5,0.664063 5.84375,1.984375 1.34375,1.3125 2.015625,3.265625 2.015625,5.859375 0,2.59375 -0.671875,4.554687 -2.015625,5.875 C 12.1875,-0.660156 10.238281,0 7.6875,0 H 2.046875 v -15.703125 z m -0.171875,13.09375 c 1.613281,0 2.820313,-0.410156 3.625,-1.234375 0.800781,-0.832031 1.203125,-2.171875 1.203125,-4.015625 0,-1.832031 -0.402344,-3.160156 -1.203125,-3.984375 -0.804687,-0.832031 -2.011719,-1.25 -3.625,-1.25 h -2.375 v 10.484375 z m 0,0"
                         id="path21379"
                         style="fill:#062f43;fill-opacity:1" />
                    </g>
                  </g>
                </g>
              </g>
            </g>
          </g>
          <rect
             style="fill:#062f43;fill-opacity:1;stroke:#000000;stroke-width:0;stroke-dasharray:none"
             id="rect27197"
             width="87.793869"
             height="6.9641099"
             x="399.06836"
             y="357.32574" />
          <rect
             style="fill:#062f43;fill-opacity:1;stroke:#000000;stroke-width:0;stroke-dasharray:none"
             id="rect27197-5"
             width="87.793869"
             height="6.9641099"
             x="64.188026"
             y="358.58188" />
        </g>
      </g>
    </g>
  </g>
</svg>
